<?xml version="1.0" encoding="UTF-8" standalone="no"?>
<!DOCTYPE svg PUBLIC "-//W3C//DTD SVG 1.1//EN" "http://www.w3.org/Graphics/SVG/1.1/DTD/svg11.dtd">
<svg width="100%" height="100%" viewBox="0 0 6750 6750" version="1.1" xmlns="http://www.w3.org/2000/svg" xmlns:xlink="http://www.w3.org/1999/xlink" xml:space="preserve" xmlns:serif="http://www.serif.com/" style="fill-rule:evenodd;clip-rule:evenodd;stroke-linecap:round;stroke-linejoin:round;stroke-miterlimit:1.5;">
    <g transform="matrix(2.08333,0,0,2.08333,0,0)">
        <g transform="matrix(-0.436267,-0.448975,0.439635,-0.427191,1810.94,5972.48)">
            <path d="M5148.25,2892.21C5148.25,2813.92 5115.15,2739.45 5057.44,2687.91C4999.74,2636.37 4923.06,2612.79 4847.09,2623.22C3788.26,2769.89 2973,3678.65 2973,4777.82C2973,5978.37 3947.7,6953.07 5148.25,6953.07C6241.45,6953.07 7146.3,6146.64 7300.36,5096.21C7312.03,5016.38 7289.07,4935.32 7237.48,4874.18C7185.88,4813.03 7110.77,4777.88 7031.73,4777.88C7031.59,4777.82 7031.44,4777.82 7031.29,4777.82C6896.61,4777.82 6782.27,4878.6 6762.56,5014.66C6647.9,5803.44 5968.82,6409.26 5148.25,6409.26C4247.83,6409.26 3516.81,5678.24 3516.81,4777.82C3516.81,3954.77 4126.29,3274.08 4918.54,3162.43C5050.13,3144.03 5148.2,3029.22 5148.2,2893.58C5148.25,2893.12 5148.25,2892.66 5148.25,2892.21Z" style="fill:none;stroke:black;stroke-width:22.39px;"/>
        </g>
        <g transform="matrix(-0.308429,-0.317414,0.31081,-0.302013,1768.3,4697.09)">
            <path d="M5148.25,2893.01C5148.25,2814.5 5115.04,2739.82 5057.17,2688.15C4999.29,2636.47 4922.38,2612.85 4846.19,2623.34C3787.8,2770.41 2973,3678.96 2973,4777.82C2973,5978.37 3947.7,6953.07 5148.25,6953.07C6243.82,6953.07 7150.23,6143.13 7301.35,5089.36C7312.51,5011.13 7289.81,4931.81 7239.17,4872.02C7188.53,4812.23 7114.95,4777.87 7037.54,4777.87C7034.01,4777.82 7030.49,4777.82 7026.97,4777.82C6894.51,4777.82 6782.14,4877.12 6763.1,5010.98C6650.01,5801.55 5970.1,6409.26 5148.25,6409.26C4247.83,6409.26 3516.81,5678.24 3516.81,4777.82C3516.81,3954.93 4126.05,3274.34 4918.07,3162.5C5049.94,3144.01 5148.2,3028.95 5148.2,2893.02C5148.25,2893.01 5148.25,2893.01 5148.25,2893.01Z" style="fill:none;stroke:black;stroke-width:31.68px;"/>
        </g>
        <g transform="matrix(-0.212785,-0.218983,0.214428,-0.208358,1736.4,3742.88)">
            <path d="M5148.25,2903.76C5148.25,2822.26 5113.65,2744.75 5053.41,2691.29C4993.17,2637.83 4913.19,2613.66 4834.16,2625.03C3781.64,2777.3 2973,3683.13 2973,4777.82C2973,5978.37 3947.7,6953.07 5148.25,6953.07C6237.1,6953.07 7139.1,6153.03 7298.49,5108.72C7311.13,5025.98 7287.72,4941.73 7234.4,4878.12C7181.08,4814.5 7103.18,4777.88 7021.18,4777.88C7021.18,4777.82 7021.18,4777.82 7021.18,4777.82C6891.71,4777.82 6781.98,4875.12 6763.81,5006.03C6652.85,5799.01 5971.81,6409.26 5148.25,6409.26C4247.83,6409.26 3516.81,5678.24 3516.81,4777.82C3516.81,3951.83 4130.65,3269.21 4927.04,3161.26C5053.59,3144.28 5148.22,3034.12 5148.22,2903.76C5148.25,2903.76 5148.25,2903.76 5148.25,2903.76Z" style="fill:none;stroke:black;stroke-width:45.91px;"/>
        </g>
        <g transform="matrix(0.698706,-0.00106393,0.00103008,0.676478,-2367.25,-2174)">
            <path d="M4409.46,4623.89C4427.19,4574.99 4464.19,4543.94 4504.74,4543.94C4545.3,4543.94 4582.29,4574.99 4600.02,4623.89L4799.53,5174.2C4803.14,5184.19 4807.98,5193.29 4813.83,5201.14C4819.69,5208.98 4826.47,5215.47 4833.92,5220.32L5244.37,5487.8C5280.85,5511.57 5304,5561.17 5304,5615.55C5304,5669.92 5280.85,5719.53 5244.37,5743.3L4833.92,6010.78C4826.47,6015.63 4819.69,6022.11 4813.83,6029.96C4807.98,6037.81 4803.14,6046.91 4799.53,6056.89L4600.02,6607.2C4582.29,6656.11 4545.3,6687.15 4504.74,6687.15C4464.19,6687.15 4427.19,6656.11 4409.46,6607.2L4209.95,6056.89C4206.34,6046.91 4201.5,6037.81 4195.65,6029.96C4189.8,6022.11 4183.01,6015.63 4175.56,6010.78L3765.11,5743.3C3728.63,5719.53 3705.48,5669.92 3705.48,5615.55C3705.48,5561.17 3728.63,5511.57 3765.11,5487.8L4175.56,5220.32C4183.01,5215.47 4189.8,5208.98 4195.65,5201.14C4201.5,5193.29 4206.34,5184.19 4209.95,5174.2L4409.46,4623.89Z" style="fill:none;stroke:black;stroke-width:20.18px;"/>
        </g>
    </g>
</svg>
